<svg width="27" height="27" viewBox="0 0 27 27" fill="none" xmlns="http://www.w3.org/2000/svg">
<g id="Arrow - Right">
<g id="Iconly/Light-Outline/Arrow---Right">
<g id="Arrow---Right">
<path id="Combined-Shape" d="M4.5 13.1912C4.5 12.7641 4.81742 12.4111 5.22926 12.3552L5.34375 12.3475L20.1757 12.3482L14.8174 7.01168C14.4872 6.68289 14.486 6.14866 14.8148 5.81844C15.1137 5.51825 15.5824 5.49001 15.9133 5.73438L16.0081 5.81587L22.8143 12.5929C22.8578 12.6362 22.8956 12.6831 22.9277 12.7327C22.9368 12.7476 22.946 12.7628 22.9548 12.7784C22.9628 12.7917 22.9701 12.8056 22.9769 12.8196C22.9865 12.8399 22.9958 12.861 23.0042 12.8825C23.0111 12.899 23.0168 12.9151 23.022 12.9314C23.0283 12.9515 23.0343 12.9729 23.0395 12.9947C23.0434 13.0099 23.0464 13.0246 23.0491 13.0393C23.0528 13.0611 23.056 13.0837 23.0583 13.1066C23.0603 13.1241 23.0615 13.1414 23.0621 13.1587C23.0623 13.1692 23.0625 13.1802 23.0625 13.1912L23.0621 13.2239C23.0614 13.2405 23.0603 13.257 23.0587 13.2735L23.0625 13.1912C23.0625 13.2445 23.0576 13.2966 23.0481 13.3471C23.0459 13.3591 23.0433 13.3715 23.0405 13.3839C23.0345 13.4093 23.0275 13.4337 23.0196 13.4577C23.0156 13.4696 23.0111 13.4823 23.0062 13.495C22.9964 13.5204 22.9856 13.5446 22.9738 13.5681C22.9684 13.5792 22.9622 13.5908 22.9558 13.6023C22.9453 13.6211 22.9344 13.6389 22.9229 13.6562C22.9148 13.6685 22.9058 13.6813 22.8965 13.6939L22.8892 13.7036C22.8664 13.7333 22.8418 13.7614 22.8154 13.7878L22.8144 13.7886L16.0081 20.5668C15.6779 20.8956 15.1437 20.8945 14.8149 20.5643C14.5159 20.2641 14.4897 19.7953 14.7354 19.4655L14.8173 19.371L20.1735 14.0357L5.34375 14.035C4.87776 14.035 4.5 13.6572 4.5 13.1912Z" fill="black"/>
</g>
</g>
</g>
</svg>
