<svg width="22" height="22" viewBox="0 0 22 22" fill="none" xmlns="http://www.w3.org/2000/svg">
<g id="Chart">
<g id="Iconly/Light-Outline/Chart">
<g id="Chart_2">
<path id="Combined-Shape" fill-rule="evenodd" clip-rule="evenodd" d="M14.6098 1.22223C17.8338 1.22223 20 3.48534 20 6.85334V14.7022C20 18.0702 17.8338 20.3333 14.6098 20.3333H6.27911C3.05511 20.3333 0.888885 18.0702 0.888885 14.7022V6.85334C0.888885 3.48534 3.05511 1.22223 6.27911 1.22223H14.6098ZM14.6098 2.55556H6.27911C3.81511 2.55556 2.22222 4.24178 2.22222 6.85334V14.7022C2.22222 17.3138 3.81511 19 6.27911 19H14.6098C17.0747 19 18.6667 17.3138 18.6667 14.7022V6.85334C18.6667 4.24178 17.0747 2.55556 14.6098 2.55556ZM6.32986 8.51334C6.69786 8.51334 6.99653 8.81201 6.99653 9.18001V15.2778C6.99653 15.6458 6.69786 15.9445 6.32986 15.9445C5.96186 15.9445 5.6632 15.6458 5.6632 15.2778V9.18001C5.6632 8.81201 5.96186 8.51334 6.32986 8.51334ZM10.4783 5.59423C10.8463 5.59423 11.145 5.8929 11.145 6.2609V15.2769C11.145 15.6449 10.8463 15.9436 10.4783 15.9436C10.1103 15.9436 9.81164 15.6449 9.81164 15.2769V6.2609C9.81164 5.8929 10.1103 5.59423 10.4783 5.59423ZM14.5586 11.7356C14.9266 11.7356 15.2252 12.0342 15.2252 12.4022V15.2769C15.2252 15.6449 14.9266 15.9436 14.5586 15.9436C14.1906 15.9436 13.8919 15.6449 13.8919 15.2769V12.4022C13.8919 12.0342 14.1906 11.7356 14.5586 11.7356Z" fill="black"/>
</g>
</g>
</g>
</svg>
