<svg width="24" height="24" viewBox="0 0 24 24" fill="none" xmlns="http://www.w3.org/2000/svg">
<g id="Frame" clip-path="url(#clip0_4_77)">
<path id="Vector" d="M21.12 5.52H2.87999C2.61599 5.52 2.39999 5.736 2.39999 6V18C2.39999 18.264 2.61599 18.48 2.87999 18.48H21.12C21.384 18.48 21.6 18.264 21.6 18V6C21.6 5.736 21.384 5.52 21.12 5.52ZM19.968 6.48L12 14.448L4.03199 6.48H19.968ZM3.35999 7.152L8.20799 12L3.35999 16.848V7.152ZM4.05599 17.52L8.87999 12.696L11.664 15.48C11.856 15.672 12.144 15.672 12.336 15.48L15.12 12.696L19.944 17.52H4.05599ZM20.64 16.848L15.792 12L20.64 7.152V16.848Z" fill="#8E69F5"/>
<path id="Vector_2" d="M192.96 -122.4V281.76H-235.2V-122.4H192.96ZM194.88 -124.32H-237.12V283.68H194.88V-124.32Z" fill="#0000FF"/>
</g>
<defs>
<clipPath id="clip0_4_77">
<rect width="24" height="24" fill="white"/>
</clipPath>
</defs>
</svg>
