<svg width="32" height="32" viewBox="0 0 32 32" fill="none" xmlns="http://www.w3.org/2000/svg">
<g id="Group 55">
<circle id="Ellipse 7" cx="16" cy="16" r="16" fill="white"/>
<path id="Vector" d="M12.16 6H8.32C8.23513 6 8.15374 6.03371 8.09373 6.09373C8.03371 6.15374 8 6.23513 8 6.32V18.16C8 18.2449 8.03371 18.3263 8.09373 18.3863C8.15374 18.4463 8.23513 18.48 8.32 18.48H11.84V25.52C11.84 25.6049 11.8737 25.6863 11.9337 25.7463C11.9937 25.8063 12.0751 25.84 12.16 25.84H16C16.0849 25.84 16.1663 25.8063 16.2263 25.7463C16.2863 25.6863 16.32 25.6049 16.32 25.52V18.48H19.52V25.52C19.52 25.6049 19.5537 25.6863 19.6137 25.7463C19.6737 25.8063 19.7551 25.84 19.84 25.84H23.68C23.7649 25.84 23.8463 25.8063 23.9063 25.7463C23.9663 25.6863 24 25.6049 24 25.52V13.68C24 13.5951 23.9663 13.5137 23.9063 13.4537C23.8463 13.3937 23.7649 13.36 23.68 13.36H20.16V6.32C20.16 6.23513 20.1263 6.15374 20.0663 6.09373C20.0063 6.03371 19.9249 6 19.84 6H16C15.9151 6 15.8337 6.03371 15.7737 6.09373C15.7137 6.15374 15.68 6.23513 15.68 6.32V13.36H12.48V6.32C12.48 6.23513 12.4463 6.15374 12.3863 6.09373C12.3263 6.03371 12.2449 6 12.16 6ZM8.64 17.84V6.64H11.84V17.84H8.64ZM23.36 14V25.2H20.16V14H23.36ZM16.32 6.64H19.52V17.84H16.32V6.64ZM15.68 14V25.2H12.48V14H15.68Z" fill="black"/>
</g>
</svg>
