<svg width="22" height="22" viewBox="0 0 22 22" fill="none" xmlns="http://www.w3.org/2000/svg">
<g id="Home">
<g id="Iconly/Light-Outline/Home">
<g id="Home_2">
<path id="Fill-1" fill-rule="evenodd" clip-rule="evenodd" d="M12.1929 13.9255C13.2631 13.9255 14.1342 14.7904 14.1342 15.8535V18.5878C14.1342 18.8162 14.3174 18.9993 14.552 19.0047H16.2462C17.5814 19.0047 18.6667 17.9327 18.6667 16.6153V8.86066C18.6605 8.40732 18.4445 7.98066 18.0738 7.6971L12.2134 3.02332C11.4267 2.40021 10.3262 2.40021 9.53691 3.0251L3.71647 7.69532C3.33158 7.98777 3.11558 8.41444 3.11114 8.87577V16.6153C3.11114 17.9327 4.19647 19.0047 5.53158 19.0047H7.2418C7.48269 19.0047 7.67825 18.8135 7.67825 18.5789C7.67825 18.5273 7.68447 18.4758 7.69514 18.4269V15.8535C7.69514 14.7967 8.56091 13.9327 9.62314 13.9255H12.1929ZM16.2462 20.338H14.536C13.5565 20.3149 12.8009 19.546 12.8009 18.5878V15.8535C12.8009 15.5255 12.528 15.2589 12.1929 15.2589H9.62758C9.29958 15.2607 9.02847 15.5282 9.02847 15.8535V18.5789C9.02847 18.6455 9.01958 18.7095 9.00091 18.77C8.90491 19.65 8.15291 20.338 7.2418 20.338H5.53158C3.46136 20.338 1.7778 18.6678 1.7778 16.6153V8.86955C1.78669 7.98599 2.1938 7.1771 2.89691 6.64466L8.7058 1.98244C9.98491 0.969103 11.7671 0.969103 13.0436 1.98066L18.8942 6.64733C19.5814 7.17088 19.9885 7.97799 20 8.85088V16.6153C20 18.6678 18.3165 20.338 16.2462 20.338Z" fill="black"/>
</g>
</g>
</g>
</svg>
