<svg width="24" height="24" viewBox="0 0 24 24" fill="none" xmlns="http://www.w3.org/2000/svg">
<g id="password 1">
<path id="Vector" d="M22.076 6.20169C21.8816 5.86537 21.5687 5.62481 21.1933 5.52407C20.8201 5.42473 20.4263 5.47513 20.0907 5.67023L13.436 9.51165V1.82812C13.436 1.02703 12.7839 0.375 11.9829 0.375C11.1818 0.375 10.5298 1.02703 10.5298 1.82812V9.49251L3.9098 5.67023C3.57417 5.47582 3.18324 5.42473 2.80719 5.52407C2.43183 5.62482 2.11821 5.86538 1.92453 6.20169C1.52362 6.8963 1.76203 7.78606 2.45595 8.18623L9.09366 12.0191L2.4723 15.8421C2.13597 16.0358 1.89542 16.3494 1.7954 16.7241C1.69464 17.0987 1.74641 17.4904 1.94014 17.8267C2.32539 18.4943 3.25772 18.7462 3.92541 18.3581L10.5298 14.5458V22.1719C10.5298 22.9729 11.1818 23.625 11.9829 23.625C12.7839 23.625 13.436 22.9729 13.436 22.1719V14.5259L20.0744 18.3581C20.7421 18.7463 21.6751 18.4943 22.059 17.8267C22.2534 17.4904 22.3052 17.0987 22.2044 16.7241C22.1044 16.3494 21.8639 16.0358 21.5275 15.8421L14.9062 12.0191L21.5438 8.18624C22.2378 7.78606 22.4762 6.8963 22.076 6.20169Z" fill="#8E69F5"/>
</g>
</svg>
