<svg width="21" height="21" viewBox="0 0 21 21" fill="none" xmlns="http://www.w3.org/2000/svg">
<g id="Search">
<g id="Iconly/Light-Outline/Search">
<g id="Search_2">
<path id="Combined-Shape" fill-rule="evenodd" clip-rule="evenodd" d="M10.2716 1C14.9704 1 18.7924 4.822 18.7924 9.52075C18.7924 11.7376 17.9416 13.7595 16.5494 15.2769L19.2889 18.0106C19.5452 18.267 19.5461 18.6817 19.2897 18.9381C19.162 19.0676 18.9931 19.1315 18.8251 19.1315C18.658 19.1315 18.49 19.0676 18.3613 18.9399L15.5889 16.1751C14.1304 17.3431 12.2812 18.0424 10.2716 18.0424C5.57288 18.0424 1.75 14.2195 1.75 9.52075C1.75 4.822 5.57288 1 10.2716 1ZM10.2716 2.3125C6.2965 2.3125 3.0625 5.54563 3.0625 9.52075C3.0625 13.4959 6.2965 16.7299 10.2716 16.7299C14.2459 16.7299 17.4799 13.4959 17.4799 9.52075C17.4799 5.54563 14.2459 2.3125 10.2716 2.3125Z" fill="#525252"/>
</g>
</g>
</g>
</svg>
